# MagicaVoxel @ Ephtracy

# group
o 

# material
mtllib filPast2-4.mtl
usemtl palette

# normals
vn -1 0 0
vn 1 0 0
vn 0 0 1
vn 0 0 -1
vn 0 -1 0
vn 0 1 0

# texcoords
vt 0.892578 0.5
vt 0.896484 0.5
vt 0.900391 0.5
vt 0.904297 0.5
vt 0.994141 0.5

# verts
v -2 0 2
v -2 0 -2
v -2 0.8 2
v -2 0.8 -2
v -2 1.3 2
v -2 1.3 -2
v -2 1.8 2
v -2 1.8 -2
v -2 4 2
v -2 4 -2
v -0.8 1.9 2
v -0.8 1.9 1.7
v -0.8 3.4 2
v -0.8 3.4 1.7
v 1.7 1.9 2
v 1.7 1.9 1.7
v 1.7 3.4 2
v 1.7 3.4 1.7
v -1.7 1.9 2
v -1.7 1.9 1.7
v -1.7 3.4 2
v -1.7 3.4 1.7
v 0.8 1.9 2
v 0.8 1.9 1.7
v 0.8 3.4 2
v 0.8 3.4 1.7
v 2 0 2
v 2 0 -2
v 2 0.8 2
v 2 0.8 -2
v 2 1.3 2
v 2 1.3 -2
v 2 1.8 2
v 2 1.8 -2
v 2 4 2
v 2 4 -2
v -2 0 2
v -2 0.8 2
v -2 1.3 2
v -2 1.8 2
v -2 4 2
v -1.7 1.9 2
v -1.7 3.4 2
v -0.8 1.9 2
v -0.8 3.4 2
v 0.8 1.9 2
v 0.8 3.4 2
v 1.7 1.9 2
v 1.7 3.4 2
v 2 0 2
v 2 0.8 2
v 2 1.3 2
v 2 1.8 2
v 2 4 2
v -1.7 1.9 1.7
v -1.7 3.4 1.7
v -0.8 1.9 1.7
v -0.8 3.4 1.7
v 0.8 1.9 1.7
v 0.8 3.4 1.7
v 1.7 1.9 1.7
v 1.7 3.4 1.7
v -2 0 -2
v -2 0.8 -2
v -2 1.3 -2
v -2 1.8 -2
v -2 4 -2
v 2 0 -2
v 2 0.8 -2
v 2 1.3 -2
v 2 1.8 -2
v 2 4 -2
v -2 0 2
v 2 0 2
v -2 0 -2
v 2 0 -2
v -1.7 3.4 2
v -0.8 3.4 2
v 0.8 3.4 2
v 1.7 3.4 2
v -1.7 3.4 1.7
v -0.8 3.4 1.7
v 0.8 3.4 1.7
v 1.7 3.4 1.7
v -1.7 1.9 2
v -0.8 1.9 2
v 0.8 1.9 2
v 1.7 1.9 2
v -1.7 1.9 1.7
v -0.8 1.9 1.7
v 0.8 1.9 1.7
v 1.7 1.9 1.7
v -2 4 2
v 2 4 2
v -2 4 -2
v 2 4 -2

# faces
f 3/4/1 2/4/1 1/4/1
f 4/4/1 2/4/1 3/4/1
f 5/3/1 4/3/1 3/3/1
f 6/3/1 4/3/1 5/3/1
f 7/2/1 6/2/1 5/2/1
f 8/2/1 6/2/1 7/2/1
f 9/1/1 8/1/1 7/1/1
f 10/1/1 8/1/1 9/1/1
f 13/1/1 12/1/1 11/1/1
f 14/1/1 12/1/1 13/1/1
f 17/1/1 16/1/1 15/1/1
f 18/1/1 16/1/1 17/1/1
f 19/1/2 20/1/2 21/1/2
f 21/1/2 20/1/2 22/1/2
f 23/1/2 24/1/2 25/1/2
f 25/1/2 24/1/2 26/1/2
f 27/4/2 28/4/2 29/4/2
f 29/4/2 28/4/2 30/4/2
f 29/3/2 30/3/2 31/3/2
f 31/3/2 30/3/2 32/3/2
f 31/2/2 32/2/2 33/2/2
f 33/2/2 32/2/2 34/2/2
f 33/1/2 34/1/2 35/1/2
f 35/1/2 34/1/2 36/1/2
f 42/1/3 41/1/3 40/1/3
f 43/1/3 41/1/3 42/1/3
f 44/1/3 42/1/3 40/1/3
f 45/1/3 41/1/3 43/1/3
f 46/1/3 44/1/3 40/1/3
f 46/1/3 45/1/3 44/1/3
f 47/1/3 41/1/3 45/1/3
f 47/1/3 45/1/3 46/1/3
f 48/1/3 46/1/3 40/1/3
f 49/1/3 41/1/3 47/1/3
f 50/4/3 38/4/3 37/4/3
f 51/3/3 39/3/3 38/3/3
f 51/4/3 38/4/3 50/4/3
f 52/2/3 40/2/3 39/2/3
f 52/3/3 39/3/3 51/3/3
f 53/1/3 49/1/3 48/1/3
f 53/2/3 40/2/3 52/2/3
f 53/1/3 48/1/3 40/1/3
f 54/1/3 41/1/3 49/1/3
f 54/1/3 49/1/3 53/1/3
f 57/5/3 56/5/3 55/5/3
f 58/5/3 56/5/3 57/5/3
f 61/5/3 60/5/3 59/5/3
f 62/5/3 60/5/3 61/5/3
f 63/4/4 64/4/4 68/4/4
f 64/3/4 65/3/4 69/3/4
f 68/4/4 64/4/4 69/4/4
f 65/2/4 66/2/4 70/2/4
f 69/3/4 65/3/4 70/3/4
f 66/1/4 67/1/4 71/1/4
f 70/2/4 66/2/4 71/2/4
f 71/1/4 67/1/4 72/1/4
f 75/4/5 74/4/5 73/4/5
f 76/4/5 74/4/5 75/4/5
f 81/1/5 78/1/5 77/1/5
f 82/1/5 78/1/5 81/1/5
f 83/1/5 80/1/5 79/1/5
f 84/1/5 80/1/5 83/1/5
f 85/1/6 86/1/6 89/1/6
f 89/1/6 86/1/6 90/1/6
f 87/1/6 88/1/6 91/1/6
f 91/1/6 88/1/6 92/1/6
f 93/1/6 94/1/6 95/1/6
f 95/1/6 94/1/6 96/1/6
